<svg xmlns="http://www.w3.org/2000/svg" width="1920" height="128"><path d="M300,203L99,213L440,209Z" fill="#82475c" stroke="#82475c" stroke-width="1.51"/><path d="M357,-81L657,-78L762,-80Z" fill="#b76157" stroke="#b76157" stroke-width="1.51"/><path d="M709,197L562,201L822,200Z" fill="#96889e" stroke="#96889e" stroke-width="1.51"/><path d="M562,201L440,209L822,200Z" fill="#93798b" stroke="#93798b" stroke-width="1.51"/><path d="M357,-81L762,-80L834,-82Z" fill="#b8685f" stroke="#b8685f" stroke-width="1.51"/><path d="M-35,-86L357,-81L834,-82Z" fill="#a53f3c" stroke="#a53f3c" stroke-width="1.51"/><path d="M822,200L440,209L989,205Z" fill="#9189a0" stroke="#9189a0" stroke-width="1.51"/><path d="M989,205L440,209L1045,207Z" fill="#8d8ba5" stroke="#8d8ba5" stroke-width="1.51"/><path d="M955,-78L1056,-78L1123,-81Z" fill="#b88083" stroke="#b88083" stroke-width="1.51"/><path d="M834,-82L955,-78L1123,-81Z" fill="#bc8283" stroke="#bc8283" stroke-width="1.51"/><path d="M-35,-86L834,-82L1181,-84Z" fill="#b46860" stroke="#b46860" stroke-width="1.51"/><path d="M834,-82L1123,-81L1181,-84Z" fill="#b47e82" stroke="#b47e82" stroke-width="1.51"/><path d="M1390,203L1192,207L1422,206Z" fill="#5d82ab" stroke="#5d82ab" stroke-width="1.51"/><path d="M-35,-86L1181,-84L1463,-85Z" fill="#b67a79" stroke="#b67a79" stroke-width="1.51"/><path d="M1181,-84L1329,-71L1463,-85Z" fill="#9b707b" stroke="#9b707b" stroke-width="1.51"/><path d="M1463,-85L1574,-78L1671,-81Z" fill="#79586e" stroke="#79586e" stroke-width="1.51"/><path d="M1463,-85L1671,-81L1733,-81Z" fill="#73516b" stroke="#73516b" stroke-width="1.51"/><path d="M1422,206L1192,207L1759,211Z" fill="#4673a0" stroke="#4673a0" stroke-width="1.51"/><path d="M1489,205L1422,206L1759,211Z" fill="#32699b" stroke="#32699b" stroke-width="1.51"/><path d="M1655,192L1516,200L1759,211Z" fill="#28669f" stroke="#28669f" stroke-width="1.51"/><path d="M1516,200L1489,205L1759,211Z" fill="#2b689c" stroke="#2b689c" stroke-width="1.51"/><path d="M1879,200L1759,211L1939,213Z" fill="#124882" stroke="#124882" stroke-width="1.51"/><path d="M1733,-81L1827,-74L1956,-71Z" fill="#6d3c5e" stroke="#6d3c5e" stroke-width="1.51"/><path d="M1827,-74L1875,-54L1956,-71Z" fill="#733a58" stroke="#733a58" stroke-width="1.51"/><path d="M1964,138L1970,167L1973,79Z" fill="#5079a3" stroke="#5079a3" stroke-width="1.51"/><path d="M1957,80L1973,79L1997,41Z" fill="#8690b0" stroke="#8690b0" stroke-width="1.51"/><path d="M1932,14L1957,80L1997,41Z" fill="#8d8ba4" stroke="#8d8ba4" stroke-width="1.51"/><path d="M1973,79L1970,167L1997,41Z" fill="#7288ab" stroke="#7288ab" stroke-width="1.51"/><path d="M1990,-44L1957,-36L1997,-18Z" fill="#80465a" stroke="#80465a" stroke-width="1.51"/><path d="M1932,14L1997,41L1997,-18Z" fill="#8f7282" stroke="#8f7282" stroke-width="1.51"/><path d="M1957,-36L1932,14L1997,-18Z" fill="#8a5c6c" stroke="#8a5c6c" stroke-width="1.51"/><path d="M1957,80L1964,138L1973,79Z" fill="#7088ae" stroke="#7088ae" stroke-width="1.51"/><path d="M1956,-71L1957,-36L1990,-44Z" fill="#793851" stroke="#793851" stroke-width="1.51"/><path d="M1957,80L1924,127L1964,138Z" fill="#6183ab" stroke="#6183ab" stroke-width="1.51"/><path d="M1901,141L1939,213L1970,167Z" fill="#205b97" stroke="#205b97" stroke-width="1.51"/><path d="M1964,138L1924,127L1970,167Z" fill="#3b6ea0" stroke="#3b6ea0" stroke-width="1.51"/><path d="M1924,127L1901,141L1970,167Z" fill="#3b71a3" stroke="#3b71a3" stroke-width="1.51"/><path d="M1932,14L1895,59L1957,80Z" fill="#8f92af" stroke="#8f92af" stroke-width="1.51"/><path d="M1875,-54L1883,-34L1956,-71Z" fill="#803f5a" stroke="#803f5a" stroke-width="1.51"/><path d="M1956,-71L1883,-34L1957,-36Z" fill="#7f4059" stroke="#7f4059" stroke-width="1.51"/><path d="M1883,-34L1932,14L1957,-36Z" fill="#8d5b6e" stroke="#8d5b6e" stroke-width="1.51"/><path d="M1895,59L1924,127L1957,80Z" fill="#7c92b6" stroke="#7c92b6" stroke-width="1.51"/><path d="M1895,59L1879,102L1924,127Z" fill="#7994bb" stroke="#7994bb" stroke-width="1.51"/><path d="M1901,141L1879,200L1939,213Z" fill="#1a5797" stroke="#1a5797" stroke-width="1.51"/><path d="M1845,9L1895,59L1932,14Z" fill="#978ba2" stroke="#978ba2" stroke-width="1.51"/><path d="M1883,-34L1845,9L1932,14Z" fill="#967082" stroke="#967082" stroke-width="1.51"/><path d="M1879,102L1901,141L1924,127Z" fill="#5a86b2" stroke="#5a86b2" stroke-width="1.51"/><path d="M1698,194L1655,192L1759,211Z" fill="#24619e" stroke="#24619e" stroke-width="1.51"/><path d="M1841,180L1769,201L1879,200Z" fill="#1b599a" stroke="#1b599a" stroke-width="1.51"/><path d="M1769,201L1759,211L1879,200Z" fill="#185392" stroke="#185392" stroke-width="1.51"/><path d="M1845,9L1849,52L1895,59Z" fill="#9897b3" stroke="#9897b3" stroke-width="1.51"/><path d="M1879,102L1848,162L1901,141Z" fill="#4d80b2" stroke="#4d80b2" stroke-width="1.51"/><path d="M1848,162L1879,200L1901,141Z" fill="#2868a4" stroke="#2868a4" stroke-width="1.51"/><path d="M1839,113L1848,162L1879,102Z" fill="#5b8aba" stroke="#5b8aba" stroke-width="1.51"/><path d="M1849,52L1879,102L1895,59Z" fill="#8d9ec3" stroke="#8d9ec3" stroke-width="1.51"/><path d="M1848,162L1841,180L1879,200Z" fill="#2061a3" stroke="#2061a3" stroke-width="1.51"/><path d="M1849,52L1839,113L1879,102Z" fill="#829cc4" stroke="#829cc4" stroke-width="1.51"/><path d="M1875,-54L1845,9L1883,-34Z" fill="#915b71" stroke="#915b71" stroke-width="1.51"/><path d="M1827,-74L1845,9L1875,-54Z" fill="#8d526c" stroke="#8d526c" stroke-width="1.51"/><path d="M1784,-53L1795,-9L1827,-74Z" fill="#905370" stroke="#905370" stroke-width="1.51"/><path d="M1827,-74L1795,-9L1845,9Z" fill="#96637a" stroke="#96637a" stroke-width="1.51"/><path d="M1839,113L1794,145L1848,162Z" fill="#4983b9" stroke="#4983b9" stroke-width="1.51"/><path d="M1765,77L1839,113L1849,52Z" fill="#8ca4cc" stroke="#8ca4cc" stroke-width="1.51"/><path d="M1797,23L1765,77L1849,52Z" fill="#9ca5c7" stroke="#9ca5c7" stroke-width="1.51"/><path d="M1845,9L1797,23L1849,52Z" fill="#9d94ae" stroke="#9d94ae" stroke-width="1.51"/><path d="M1794,145L1841,180L1848,162Z" fill="#2d72af" stroke="#2d72af" stroke-width="1.51"/><path d="M1795,-9L1797,23L1845,9Z" fill="#a1869a" stroke="#a1869a" stroke-width="1.51"/><path d="M1794,145L1769,201L1841,180Z" fill="#276cb0" stroke="#276cb0" stroke-width="1.51"/><path d="M1733,-81L1784,-53L1827,-74Z" fill="#7b4667" stroke="#7b4667" stroke-width="1.51"/><path d="M1765,77L1794,145L1839,113Z" fill="#719ac9" stroke="#719ac9" stroke-width="1.51"/><path d="M469,206L440,209L562,201Z" fill="#8f6878" stroke="#8f6878" stroke-width="1.51"/><path d="M1575,185L1516,200L1655,192Z" fill="#3375ad" stroke="#3375ad" stroke-width="1.51"/><path d="M1745,157L1769,201L1794,145Z" fill="#2f75b4" stroke="#2f75b4" stroke-width="1.51"/><path d="M1765,77L1745,157L1794,145Z" fill="#6196c6" stroke="#6196c6" stroke-width="1.51"/><path d="M1784,-53L1745,3L1795,-9Z" fill="#9d6e84" stroke="#9d6e84" stroke-width="1.51"/><path d="M1745,56L1765,77L1797,23Z" fill="#9da9ca" stroke="#9da9ca" stroke-width="1.51"/><path d="M1795,-9L1745,3L1797,23Z" fill="#a3889c" stroke="#a3889c" stroke-width="1.51"/><path d="M1745,3L1745,56L1797,23Z" fill="#a39db5" stroke="#a39db5" stroke-width="1.51"/><path d="M1745,56L1751,71L1765,77Z" fill="#99b0d4" stroke="#99b0d4" stroke-width="1.51"/><path d="M1751,71L1745,157L1765,77Z" fill="#7ea5ce" stroke="#7ea5ce" stroke-width="1.51"/><path d="M1733,-81L1745,3L1784,-53Z" fill="#945b74" stroke="#945b74" stroke-width="1.51"/><path d="M1733,-81L1701,-6L1745,3Z" fill="#9d6b80" stroke="#9d6b80" stroke-width="1.51"/><path d="M1698,150L1745,157L1751,71Z" fill="#639ac8" stroke="#639ac8" stroke-width="1.51"/><path d="M1745,157L1759,211L1769,201Z" fill="#2365a7" stroke="#2365a7" stroke-width="1.51"/><path d="M1676,86L1698,150L1751,71Z" fill="#80a9d1" stroke="#80a9d1" stroke-width="1.51"/><path d="M1745,157L1698,194L1759,211Z" fill="#266aab" stroke="#266aab" stroke-width="1.51"/><path d="M1745,3L1707,14L1745,56Z" fill="#a59eb3" stroke="#a59eb3" stroke-width="1.51"/><path d="M1745,56L1676,86L1751,71Z" fill="#98b2d5" stroke="#98b2d5" stroke-width="1.51"/><path d="M1671,-81L1701,-6L1733,-81Z" fill="#92566e" stroke="#92566e" stroke-width="1.51"/><path d="M1698,150L1698,194L1745,157Z" fill="#347bb7" stroke="#347bb7" stroke-width="1.51"/><path d="M1701,-6L1707,14L1745,3Z" fill="#a78d9d" stroke="#a78d9d" stroke-width="1.51"/><path d="M1707,14L1676,86L1745,56Z" fill="#a1b0ce" stroke="#a1b0ce" stroke-width="1.51"/><path d="M1676,86L1657,157L1698,150Z" fill="#5f9cc9" stroke="#5f9cc9" stroke-width="1.51"/><path d="M1698,150L1657,157L1698,194Z" fill="#367eb9" stroke="#367eb9" stroke-width="1.51"/><path d="M1671,-81L1646,-48L1701,-6Z" fill="#996377" stroke="#996377" stroke-width="1.51"/><path d="M1646,-48L1652,-2L1701,-6Z" fill="#a47b8b" stroke="#a47b8b" stroke-width="1.51"/><path d="M1643,68L1676,86L1707,14Z" fill="#a2b6d2" stroke="#a2b6d2" stroke-width="1.51"/><path d="M1701,-6L1652,-2L1707,14Z" fill="#a88f9c" stroke="#a88f9c" stroke-width="1.51"/><path d="M1652,-2L1643,68L1707,14Z" fill="#a9a7ba" stroke="#a9a7ba" stroke-width="1.51"/><path d="M1657,157L1655,192L1698,194Z" fill="#2f76b4" stroke="#2f76b4" stroke-width="1.51"/><path d="M1626,21L1643,68L1652,-2Z" fill="#aaacbd" stroke="#aaacbd" stroke-width="1.51"/><path d="M1603,140L1657,157L1676,86Z" fill="#66a2cc" stroke="#66a2cc" stroke-width="1.51"/><path d="M1643,68L1603,140L1676,86Z" fill="#89b3d6" stroke="#89b3d6" stroke-width="1.51"/><path d="M1574,-78L1646,-48L1671,-81Z" fill="#85576e" stroke="#85576e" stroke-width="1.51"/><path d="M1601,60L1603,140L1643,68Z" fill="#92b9d9" stroke="#92b9d9" stroke-width="1.51"/><path d="M1603,140L1575,185L1655,192Z" fill="#3882bb" stroke="#3882bb" stroke-width="1.51"/><path d="M1603,140L1655,192L1657,157Z" fill="#3b86bd" stroke="#3b86bd" stroke-width="1.51"/><path d="M1576,5L1626,21L1646,-48Z" fill="#aa8d97" stroke="#aa8d97" stroke-width="1.51"/><path d="M1646,-48L1626,21L1652,-2Z" fill="#a88894" stroke="#a88894" stroke-width="1.51"/><path d="M1626,21L1601,60L1643,68Z" fill="#a7bad0" stroke="#a7bad0" stroke-width="1.51"/><path d="M1574,-78L1576,5L1646,-48Z" fill="#a06f7d" stroke="#a06f7d" stroke-width="1.51"/><path d="M1181,-84L1260,-69L1329,-71Z" fill="#ab787f" stroke="#ab787f" stroke-width="1.51"/><path d="M1601,60L1565,72L1603,140Z" fill="#93bcda" stroke="#93bcda" stroke-width="1.51"/><path d="M1576,5L1601,60L1626,21Z" fill="#adb1bf" stroke="#adb1bf" stroke-width="1.51"/><path d="M1574,-78L1518,-43L1576,5Z" fill="#a67681" stroke="#a67681" stroke-width="1.51"/><path d="M1576,5L1556,53L1601,60Z" fill="#adbacb" stroke="#adbacb" stroke-width="1.51"/><path d="M1519,128L1575,185L1603,140Z" fill="#4e98c6" stroke="#4e98c6" stroke-width="1.51"/><path d="M1542,96L1519,128L1603,140Z" fill="#77b1d4" stroke="#77b1d4" stroke-width="1.51"/><path d="M1565,72L1542,96L1603,140Z" fill="#8ab9d9" stroke="#8ab9d9" stroke-width="1.51"/><path d="M1556,53L1565,72L1601,60Z" fill="#a8c5dc" stroke="#a8c5dc" stroke-width="1.51"/><path d="M1463,-85L1518,-43L1574,-78Z" fill="#916474" stroke="#916474" stroke-width="1.51"/><path d="M1519,128L1516,200L1575,185Z" fill="#488cc0" stroke="#488cc0" stroke-width="1.51"/><path d="M1517,-1L1556,53L1576,5Z" fill="#b4aeb7" stroke="#b4aeb7" stroke-width="1.51"/><path d="M1518,-43L1517,-1L1576,5Z" fill="#b29096" stroke="#b29096" stroke-width="1.51"/><path d="M1517,-1L1507,51L1556,53Z" fill="#b6beca" stroke="#b6beca" stroke-width="1.51"/><path d="M1556,53L1542,96L1565,72Z" fill="#a4c5df" stroke="#a4c5df" stroke-width="1.51"/><path d="M1507,51L1542,96L1556,53Z" fill="#accae0" stroke="#accae0" stroke-width="1.51"/><path d="M1472,72L1519,128L1542,96Z" fill="#98c2dd" stroke="#98c2dd" stroke-width="1.51"/><path d="M1507,51L1472,72L1542,96Z" fill="#accbe2" stroke="#accbe2" stroke-width="1.51"/><path d="M1468,-4L1507,51L1517,-1Z" fill="#bcb1b6" stroke="#bcb1b6" stroke-width="1.51"/><path d="M1468,-4L1517,-1L1518,-43Z" fill="#b69295" stroke="#b69295" stroke-width="1.51"/><path d="M1472,72L1475,124L1519,128Z" fill="#91c0dc" stroke="#91c0dc" stroke-width="1.51"/><path d="M1489,205L1516,200L1519,128Z" fill="#4b8ac0" stroke="#4b8ac0" stroke-width="1.51"/><path d="M1475,124L1489,205L1519,128Z" fill="#5a9fca" stroke="#5a9fca" stroke-width="1.51"/><path d="M1463,-85L1468,-4L1518,-43Z" fill="#ae7982" stroke="#ae7982" stroke-width="1.51"/><path d="M1329,-71L1380,-59L1463,-85Z" fill="#9f707b" stroke="#9f707b" stroke-width="1.51"/><path d="M1468,-4L1434,32L1472,72Z" fill="#c0c6cd" stroke="#c0c6cd" stroke-width="1.51"/><path d="M1468,-4L1472,72L1507,51Z" fill="#bcc6d1" stroke="#bcc6d1" stroke-width="1.51"/><path d="M1268,181L1192,207L1390,203Z" fill="#6b8eb8" stroke="#6b8eb8" stroke-width="1.51"/><path d="M1463,-85L1425,-27L1468,-4Z" fill="#b48287" stroke="#b48287" stroke-width="1.51"/><path d="M1428,122L1422,206L1475,124Z" fill="#67a7ce" stroke="#67a7ce" stroke-width="1.51"/><path d="M1475,124L1422,206L1489,205Z" fill="#548fc2" stroke="#548fc2" stroke-width="1.51"/><path d="M1410,-48L1425,-27L1463,-85Z" fill="#b0777e" stroke="#b0777e" stroke-width="1.51"/><path d="M1434,71L1428,122L1472,72Z" fill="#accee4" stroke="#accee4" stroke-width="1.51"/><path d="M1434,32L1434,71L1472,72Z" fill="#bdd3e2" stroke="#bdd3e2" stroke-width="1.51"/><path d="M1472,72L1428,122L1475,124Z" fill="#98c5df" stroke="#98c5df" stroke-width="1.51"/><path d="M1402,130L1422,206L1428,122Z" fill="#68a8cf" stroke="#68a8cf" stroke-width="1.51"/><path d="M1425,-27L1434,32L1468,-4Z" fill="#c3aba8" stroke="#c3aba8" stroke-width="1.51"/><path d="M1380,-59L1410,-48L1463,-85Z" fill="#a6727b" stroke="#a6727b" stroke-width="1.51"/><path d="M1402,130L1390,203L1422,206Z" fill="#5f94c5" stroke="#5f94c5" stroke-width="1.51"/><path d="M1395,73L1402,130L1428,122Z" fill="#9fcae1" stroke="#9fcae1" stroke-width="1.51"/><path d="M1376,56L1395,73L1434,32Z" fill="#c5d6e1" stroke="#c5d6e1" stroke-width="1.51"/><path d="M1384,-2L1376,56L1434,32Z" fill="#cac9cb" stroke="#cac9cb" stroke-width="1.51"/><path d="M1425,-27L1384,-2L1434,32Z" fill="#c7aeab" stroke="#c7aeab" stroke-width="1.51"/><path d="M1434,32L1395,73L1434,71Z" fill="#c1d6e4" stroke="#c1d6e4" stroke-width="1.51"/><path d="M1395,73L1428,122L1434,71Z" fill="#b0d1e5" stroke="#b0d1e5" stroke-width="1.51"/><path d="M1355,148L1390,203L1402,130Z" fill="#6ba6ce" stroke="#6ba6ce" stroke-width="1.51"/><path d="M1410,-48L1384,-2L1425,-27Z" fill="#c09393" stroke="#c09393" stroke-width="1.51"/><path d="M1355,148L1352,178L1390,203Z" fill="#689bc9" stroke="#689bc9" stroke-width="1.51"/><path d="M1352,178L1268,181L1390,203Z" fill="#6794c2" stroke="#6794c2" stroke-width="1.51"/><path d="M1395,73L1341,106L1402,130Z" fill="#a9d0e4" stroke="#a9d0e4" stroke-width="1.51"/><path d="M1380,-59L1384,-2L1410,-48Z" fill="#be8b8c" stroke="#be8b8c" stroke-width="1.51"/><path d="M1341,106L1355,148L1402,130Z" fill="#90c2dc" stroke="#90c2dc" stroke-width="1.51"/><path d="M1376,56L1341,106L1395,73Z" fill="#bedaea" stroke="#bedaea" stroke-width="1.51"/><path d="M1312,12L1376,56L1384,-2Z" fill="#d0c7c6" stroke="#d0c7c6" stroke-width="1.51"/><path d="M1380,-59L1329,-71L1384,-2Z" fill="#be8688" stroke="#be8688" stroke-width="1.51"/><path d="M1312,12L1318,58L1376,56Z" fill="#d1d7db" stroke="#d1d7db" stroke-width="1.51"/><path d="M1329,-71L1312,12L1384,-2Z" fill="#cb9e9a" stroke="#cb9e9a" stroke-width="1.51"/><path d="M1318,58L1341,106L1376,56Z" fill="#c5ddeb" stroke="#c5ddeb" stroke-width="1.51"/><path d="M1296,162L1268,181L1352,178Z" fill="#73a1cc" stroke="#73a1cc" stroke-width="1.51"/><path d="M1296,162L1352,178L1355,148Z" fill="#72a8cf" stroke="#72a8cf" stroke-width="1.51"/><path d="M1341,106L1296,162L1355,148Z" fill="#89bcda" stroke="#89bcda" stroke-width="1.51"/><path d="M1267,4L1312,12L1329,-71Z" fill="#d0a39e" stroke="#d0a39e" stroke-width="1.51"/><path d="M1260,-69L1267,4L1329,-71Z" fill="#c78a8a" stroke="#c78a8a" stroke-width="1.51"/><path d="M1318,58L1283,65L1341,106Z" fill="#c8dfec" stroke="#c8dfec" stroke-width="1.51"/><path d="M1283,65L1296,162L1341,106Z" fill="#acd1e5" stroke="#acd1e5" stroke-width="1.51"/><path d="M1283,65L1232,120L1296,162Z" fill="#acd2e5" stroke="#acd2e5" stroke-width="1.51"/><path d="M1312,12L1297,52L1318,58Z" fill="#d5d9db" stroke="#d5d9db" stroke-width="1.51"/><path d="M1297,52L1283,65L1318,58Z" fill="#d3e1ea" stroke="#d3e1ea" stroke-width="1.51"/><path d="M-35,-86L138,-67L357,-81Z" fill="#981829" stroke="#981829" stroke-width="1.51"/><path d="M1267,4L1297,52L1312,12Z" fill="#d9cdc9" stroke="#d9cdc9" stroke-width="1.51"/><path d="M1232,120L1234,171L1268,181Z" fill="#83b3d5" stroke="#83b3d5" stroke-width="1.51"/><path d="M1224,95L1232,120L1283,65Z" fill="#c7dfec" stroke="#c7dfec" stroke-width="1.51"/><path d="M1232,120L1268,181L1296,162Z" fill="#81b3d6" stroke="#81b3d6" stroke-width="1.51"/><path d="M1250,27L1283,65L1297,52Z" fill="#d8dfe2" stroke="#d8dfe2" stroke-width="1.51"/><path d="M1267,4L1250,27L1297,52Z" fill="#dbd3d0" stroke="#dbd3d0" stroke-width="1.51"/><path d="M1220,-54L1222,-9L1260,-69Z" fill="#ce8f8d" stroke="#ce8f8d" stroke-width="1.51"/><path d="M1260,-69L1222,-9L1267,4Z" fill="#d5a099" stroke="#d5a099" stroke-width="1.51"/><path d="M1234,171L1192,207L1268,181Z" fill="#799cc8" stroke="#799cc8" stroke-width="1.51"/><path d="M1250,27L1224,95L1283,65Z" fill="#d9e6ef" stroke="#d9e6ef" stroke-width="1.51"/><path d="M724,196L709,197L822,200Z" fill="#9690a9" stroke="#9690a9" stroke-width="1.51"/><path d="M1147,191L1045,207L1192,207Z" fill="#7d92b7" stroke="#7d92b7" stroke-width="1.51"/><path d="M1181,-84L1220,-54L1260,-69Z" fill="#b77e82" stroke="#b77e82" stroke-width="1.51"/><path d="M1222,-9L1250,27L1267,4Z" fill="#dec2b9" stroke="#dec2b9" stroke-width="1.51"/><path d="M1191,43L1224,95L1250,27Z" fill="#dee6ea" stroke="#dee6ea" stroke-width="1.51"/><path d="M-35,-86L61,-72L138,-67Z" fill="#8e0b26" stroke="#8e0b26" stroke-width="1.51"/><path d="M1222,-9L1191,43L1250,27Z" fill="#e2d0c9" stroke="#e2d0c9" stroke-width="1.51"/><path d="M1191,43L1199,99L1224,95Z" fill="#d6e7f1" stroke="#d6e7f1" stroke-width="1.51"/><path d="M1232,120L1191,139L1234,171Z" fill="#95c0dd" stroke="#95c0dd" stroke-width="1.51"/><path d="M1191,139L1192,207L1234,171Z" fill="#83aad1" stroke="#83aad1" stroke-width="1.51"/><path d="M1224,95L1199,99L1232,120Z" fill="#bfdceb" stroke="#bfdceb" stroke-width="1.51"/><path d="M1199,99L1191,139L1232,120Z" fill="#b1d4e7" stroke="#b1d4e7" stroke-width="1.51"/><path d="M1220,-54L1171,-27L1222,-9Z" fill="#d89e97" stroke="#d89e97" stroke-width="1.51"/><path d="M1171,-27L1191,43L1222,-9Z" fill="#e4c1b6" stroke="#e4c1b6" stroke-width="1.51"/><path d="M1181,-84L1171,-27L1220,-54Z" fill="#ce8887" stroke="#ce8887" stroke-width="1.51"/><path d="M1191,139L1147,191L1192,207Z" fill="#85a6d0" stroke="#85a6d0" stroke-width="1.51"/><path d="M1191,43L1121,80L1199,99Z" fill="#deebf3" stroke="#deebf3" stroke-width="1.51"/><path d="M1118,137L1191,139L1199,99Z" fill="#b1d4e7" stroke="#b1d4e7" stroke-width="1.51"/><path d="M1121,80L1118,137L1199,99Z" fill="#c8e0ed" stroke="#c8e0ed" stroke-width="1.51"/><path d="M357,-81L493,-63L657,-78Z" fill="#ba574c" stroke="#ba574c" stroke-width="1.51"/><path d="M1086,184L1045,207L1147,191Z" fill="#859cc2" stroke="#859cc2" stroke-width="1.51"/><path d="M1124,-33L1111,58L1171,-27Z" fill="#eac1b4" stroke="#eac1b4" stroke-width="1.51"/><path d="M1171,-27L1111,58L1191,43Z" fill="#ead8d0" stroke="#ead8d0" stroke-width="1.51"/><path d="M1111,58L1121,80L1191,43Z" fill="#e7edf1" stroke="#e7edf1" stroke-width="1.51"/><path d="M1118,137L1147,191L1191,139Z" fill="#91bada" stroke="#91bada" stroke-width="1.51"/><path d="M1123,-81L1124,-33L1171,-27Z" fill="#d7928e" stroke="#d7928e" stroke-width="1.51"/><path d="M1123,-81L1171,-27L1181,-84Z" fill="#c58485" stroke="#c58485" stroke-width="1.51"/><path d="M1084,15L1111,58L1124,-33Z" fill="#eed0c4" stroke="#eed0c4" stroke-width="1.51"/><path d="M1105,98L1118,137L1121,80Z" fill="#cbe1ee" stroke="#cbe1ee" stroke-width="1.51"/><path d="M1118,137L1086,184L1147,191Z" fill="#8fb0d4" stroke="#8fb0d4" stroke-width="1.51"/><path d="M1083,155L1086,184L1118,137Z" fill="#96bad9" stroke="#96bad9" stroke-width="1.51"/><path d="M1098,-43L1082,-24L1124,-33Z" fill="#e0a097" stroke="#e0a097" stroke-width="1.51"/><path d="M1082,-24L1084,15L1124,-33Z" fill="#e8b4a8" stroke="#e8b4a8" stroke-width="1.51"/><path d="M1123,-81L1098,-43L1124,-33Z" fill="#d68e8b" stroke="#d68e8b" stroke-width="1.51"/><path d="M1056,-78L1098,-43L1123,-81Z" fill="#c58586" stroke="#c58586" stroke-width="1.51"/><path d="M1111,58L1105,98L1121,80Z" fill="#e1ecf3" stroke="#e1ecf3" stroke-width="1.51"/><path d="M1105,98L1083,155L1118,137Z" fill="#b2d3e6" stroke="#b2d3e6" stroke-width="1.51"/><path d="M1052,146L1083,155L1105,98Z" fill="#b1d1e5" stroke="#b1d1e5" stroke-width="1.51"/><path d="M1084,15L1042,31L1111,58Z" fill="#f1e5dd" stroke="#f1e5dd" stroke-width="1.51"/><path d="M1029,83L1105,98L1111,58Z" fill="#e2edf3" stroke="#e2edf3" stroke-width="1.51"/><path d="M1042,31L1029,83L1111,58Z" fill="#eff0f0" stroke="#eff0f0" stroke-width="1.51"/><path d="M1029,83L1052,146L1105,98Z" fill="#cce1ee" stroke="#cce1ee" stroke-width="1.51"/><path d="M1056,-78L1082,-24L1098,-43Z" fill="#da938d" stroke="#da938d" stroke-width="1.51"/><path d="M1056,-78L1021,-18L1082,-24Z" fill="#e19c94" stroke="#e19c94" stroke-width="1.51"/><path d="M1082,-24L1021,-18L1084,15Z" fill="#edbbad" stroke="#edbbad" stroke-width="1.51"/><path d="M1021,-18L1042,31L1084,15Z" fill="#f2cfc0" stroke="#f2cfc0" stroke-width="1.51"/><path d="M1083,155L1052,146L1086,184Z" fill="#97b9d8" stroke="#97b9d8" stroke-width="1.51"/><path d="M1052,146L1045,207L1086,184Z" fill="#91abd2" stroke="#91abd2" stroke-width="1.51"/><path d="M1029,83L989,124L1052,146Z" fill="#c7dfec" stroke="#c7dfec" stroke-width="1.51"/><path d="M989,205L1045,207L1052,146Z" fill="#91a6ce" stroke="#91a6ce" stroke-width="1.51"/><path d="M991,-40L1021,-18L1056,-78Z" fill="#e09891" stroke="#e09891" stroke-width="1.51"/><path d="M955,-78L991,-40L1056,-78Z" fill="#cf8a87" stroke="#cf8a87" stroke-width="1.51"/><path d="M1021,-18L998,18L1042,31Z" fill="#f5d1c2" stroke="#f5d1c2" stroke-width="1.51"/><path d="M989,124L989,205L1052,146Z" fill="#9ebedb" stroke="#9ebedb" stroke-width="1.51"/><path d="M998,18L1029,83L1042,31Z" fill="#f5ebe6" stroke="#f5ebe6" stroke-width="1.51"/><path d="M912,174L822,200L989,205Z" fill="#949ec0" stroke="#949ec0" stroke-width="1.51"/><path d="M998,18L960,68L1029,83Z" fill="#f5f2f0" stroke="#f5f2f0" stroke-width="1.51"/><path d="M960,68L989,124L1029,83Z" fill="#e3edf4" stroke="#e3edf4" stroke-width="1.51"/><path d="M980,-7L998,18L1021,-18Z" fill="#f4c5b4" stroke="#f4c5b4" stroke-width="1.51"/><path d="M991,-40L980,-7L1021,-18Z" fill="#edafa2" stroke="#edafa2" stroke-width="1.51"/><path d="M912,174L989,205L989,124Z" fill="#9fb8d8" stroke="#9fb8d8" stroke-width="1.51"/><path d="M918,134L912,174L989,124Z" fill="#b1cbdf" stroke="#b1cbdf" stroke-width="1.51"/><path d="M980,-7L945,53L998,18Z" fill="#f9ddd0" stroke="#f9ddd0" stroke-width="1.51"/><path d="M945,53L960,68L998,18Z" fill="#f9eee9" stroke="#f9eee9" stroke-width="1.51"/><path d="M960,68L921,105L989,124Z" fill="#dfebf2" stroke="#dfebf2" stroke-width="1.51"/><path d="M941,-31L980,-7L991,-40Z" fill="#eeac9e" stroke="#eeac9e" stroke-width="1.51"/><path d="M955,-78L941,-31L991,-40Z" fill="#e3968e" stroke="#e3968e" stroke-width="1.51"/><path d="M921,105L918,134L989,124Z" fill="#cadeea" stroke="#cadeea" stroke-width="1.51"/><path d="M941,-31L945,53L980,-7Z" fill="#f9cebc" stroke="#f9cebc" stroke-width="1.51"/><path d="M862,172L822,200L912,174Z" fill="#9da7c8" stroke="#9da7c8" stroke-width="1.51"/><path d="M883,-22L893,50L941,-31Z" fill="#f8c5b0" stroke="#f8c5b0" stroke-width="1.51"/><path d="M941,-31L893,50L945,53Z" fill="#fbddcf" stroke="#fbddcf" stroke-width="1.51"/><path d="M834,-82L908,-52L955,-78Z" fill="#ca8480" stroke="#ca8480" stroke-width="1.51"/><path d="M908,-52L941,-31L955,-78Z" fill="#e19189" stroke="#e19189" stroke-width="1.51"/><path d="M945,53L921,105L960,68Z" fill="#f1f2f4" stroke="#f1f2f4" stroke-width="1.51"/><path d="M893,50L921,105L945,53Z" fill="#f5f3f2" stroke="#f5f3f2" stroke-width="1.51"/><path d="M908,-52L883,-22L941,-31Z" fill="#eaa093" stroke="#eaa093" stroke-width="1.51"/><path d="M895,156L912,174L918,134Z" fill="#a7c0d7" stroke="#a7c0d7" stroke-width="1.51"/><path d="M885,109L918,134L921,105Z" fill="#cfdee7" stroke="#cfdee7" stroke-width="1.51"/><path d="M893,50L885,109L921,105Z" fill="#e9eced" stroke="#e9eced" stroke-width="1.51"/><path d="M885,109L895,156L918,134Z" fill="#bed2e0" stroke="#bed2e0" stroke-width="1.51"/><path d="M895,156L862,172L912,174Z" fill="#a3b5d0" stroke="#a3b5d0" stroke-width="1.51"/><path d="M845,89L885,109L893,50Z" fill="#edeceb" stroke="#edeceb" stroke-width="1.51"/><path d="M834,-82L883,-22L908,-52Z" fill="#e18f84" stroke="#e18f84" stroke-width="1.51"/><path d="M883,-22L812,-2L893,50Z" fill="#fbcbb6" stroke="#fbcbb6" stroke-width="1.51"/><path d="M812,-2L817,53L893,50Z" fill="#fce0d1" stroke="#fce0d1" stroke-width="1.51"/><path d="M885,109L832,132L895,156Z" fill="#c0d1dd" stroke="#c0d1dd" stroke-width="1.51"/><path d="M832,132L862,172L895,156Z" fill="#aabed3" stroke="#aabed3" stroke-width="1.51"/><path d="M817,53L845,89L893,50Z" fill="#f9f0ea" stroke="#f9f0ea" stroke-width="1.51"/><path d="M834,-82L812,-2L883,-22Z" fill="#e99b8b" stroke="#e99b8b" stroke-width="1.51"/><path d="M845,89L832,132L885,109Z" fill="#d7dfe3" stroke="#d7dfe3" stroke-width="1.51"/><path d="M832,132L822,200L862,172Z" fill="#a4b1ca" stroke="#a4b1ca" stroke-width="1.51"/><path d="M795,186L724,196L822,200Z" fill="#9895b1" stroke="#9895b1" stroke-width="1.51"/><path d="M795,186L822,200L832,132Z" fill="#a3acc6" stroke="#a3acc6" stroke-width="1.51"/><path d="M773,-10L812,-2L834,-82Z" fill="#eb9d8b" stroke="#eb9d8b" stroke-width="1.51"/><path d="M755,-63L773,-10L834,-82Z" fill="#e0897b" stroke="#e0897b" stroke-width="1.51"/><path d="M763,103L832,132L845,89Z" fill="#dadddf" stroke="#dadddf" stroke-width="1.51"/><path d="M817,53L763,103L845,89Z" fill="#efe8e3" stroke="#efe8e3" stroke-width="1.51"/><path d="M812,-2L792,39L817,53Z" fill="#fcdbc9" stroke="#fcdbc9" stroke-width="1.51"/><path d="M763,103L771,144L832,132Z" fill="#c9d1d6" stroke="#c9d1d6" stroke-width="1.51"/><path d="M771,144L795,186L832,132Z" fill="#abbacb" stroke="#abbacb" stroke-width="1.51"/><path d="M762,-80L755,-63L834,-82Z" fill="#c37a73" stroke="#c37a73" stroke-width="1.51"/><path d="M792,39L763,103L817,53Z" fill="#faebe3" stroke="#faebe3" stroke-width="1.51"/><path d="M773,-10L792,39L812,-2Z" fill="#fac7af" stroke="#fac7af" stroke-width="1.51"/><path d="M493,-63L574,-56L657,-78Z" fill="#c96657" stroke="#c96657" stroke-width="1.51"/><path d="M773,-10L739,43L792,39Z" fill="#fcd3bd" stroke="#fcd3bd" stroke-width="1.51"/><path d="M739,43L763,103L792,39Z" fill="#fbe9de" stroke="#fbe9de" stroke-width="1.51"/><path d="M771,144L724,196L795,186Z" fill="#a3a6c0" stroke="#a3a6c0" stroke-width="1.51"/><path d="M739,43L724,110L763,103Z" fill="#eee2db" stroke="#eee2db" stroke-width="1.51"/><path d="M717,143L724,196L771,144Z" fill="#aaafc1" stroke="#aaafc1" stroke-width="1.51"/><path d="M763,103L724,110L771,144Z" fill="#d1d3d5" stroke="#d1d3d5" stroke-width="1.51"/><path d="M724,110L717,143L771,144Z" fill="#c4c8cd" stroke="#c4c8cd" stroke-width="1.51"/><path d="M755,-63L714,-19L773,-10Z" fill="#eb9a84" stroke="#eb9a84" stroke-width="1.51"/><path d="M714,-19L739,43L773,-10Z" fill="#fabfa3" stroke="#fabfa3" stroke-width="1.51"/><path d="M674,-56L755,-63L762,-80Z" fill="#cf7a6e" stroke="#cf7a6e" stroke-width="1.51"/><path d="M657,-78L674,-56L762,-80Z" fill="#c77368" stroke="#c77368" stroke-width="1.51"/><path d="M689,96L724,110L739,43Z" fill="#efe0d7" stroke="#efe0d7" stroke-width="1.51"/><path d="M674,-56L714,-19L755,-63Z" fill="#e28775" stroke="#e28775" stroke-width="1.51"/><path d="M717,143L709,197L724,196Z" fill="#a39eb7" stroke="#a39eb7" stroke-width="1.51"/><path d="M714,-19L685,3L739,43Z" fill="#fabfa3" stroke="#fabfa3" stroke-width="1.51"/><path d="M685,3L674,42L739,43Z" fill="#fcd1b9" stroke="#fcd1b9" stroke-width="1.51"/><path d="M674,42L689,96L739,43Z" fill="#fbe1d3" stroke="#fbe1d3" stroke-width="1.51"/><path d="M619,164L562,201L709,197Z" fill="#9f8ca3" stroke="#9f8ca3" stroke-width="1.51"/><path d="M673,142L709,197L717,143Z" fill="#ababbb" stroke="#ababbb" stroke-width="1.51"/><path d="M689,96L673,142L717,143Z" fill="#cac6c8" stroke="#cac6c8" stroke-width="1.51"/><path d="M689,96L717,143L724,110Z" fill="#d4cfcf" stroke="#d4cfcf" stroke-width="1.51"/><path d="M674,-56L685,3L714,-19Z" fill="#ed9980" stroke="#ed9980" stroke-width="1.51"/><path d="M674,-56L651,-29L685,3Z" fill="#ea927a" stroke="#ea927a" stroke-width="1.51"/><path d="M645,156L619,164L709,197Z" fill="#a69cb0" stroke="#a69cb0" stroke-width="1.51"/><path d="M673,142L645,156L709,197Z" fill="#a9a4b6" stroke="#a9a4b6" stroke-width="1.51"/><path d="M674,42L625,97L689,96Z" fill="#f2dacf" stroke="#f2dacf" stroke-width="1.51"/><path d="M625,97L673,142L689,96Z" fill="#d8cbc7" stroke="#d8cbc7" stroke-width="1.51"/><path d="M613,36L674,42L685,3Z" fill="#fbc8af" stroke="#fbc8af" stroke-width="1.51"/><path d="M651,-29L613,36L685,3Z" fill="#f7b293" stroke="#f7b293" stroke-width="1.51"/><path d="M625,97L645,156L673,142Z" fill="#c5bdbe" stroke="#c5bdbe" stroke-width="1.51"/><path d="M613,36L625,97L674,42Z" fill="#fbd8c8" stroke="#fbd8c8" stroke-width="1.51"/><path d="M657,-78L651,-29L674,-56Z" fill="#db7868" stroke="#db7868" stroke-width="1.51"/><path d="M574,-56L651,-29L657,-78Z" fill="#da7463" stroke="#da7463" stroke-width="1.51"/><path d="M625,97L619,164L645,156Z" fill="#beb4b9" stroke="#beb4b9" stroke-width="1.51"/><path d="M566,-29L613,36L651,-29Z" fill="#f1a183" stroke="#f1a183" stroke-width="1.51"/><path d="M574,-56L566,-29L651,-29Z" fill="#e18068" stroke="#e18068" stroke-width="1.51"/><path d="M613,36L589,48L625,97Z" fill="#fad5c4" stroke="#fad5c4" stroke-width="1.51"/><path d="M581,134L619,164L625,97Z" fill="#c5b8b8" stroke="#c5b8b8" stroke-width="1.51"/><path d="M589,48L582,88L625,97Z" fill="#f3d2c4" stroke="#f3d2c4" stroke-width="1.51"/><path d="M582,88L581,134L625,97Z" fill="#ddc6be" stroke="#ddc6be" stroke-width="1.51"/><path d="M566,-29L589,48L613,36Z" fill="#f9b89a" stroke="#f9b89a" stroke-width="1.51"/><path d="M581,134L562,201L619,164Z" fill="#aa98a7" stroke="#aa98a7" stroke-width="1.51"/><path d="M-27,206L-65,209L99,213Z" fill="#602b47" stroke="#602b47" stroke-width="1.51"/><path d="M523,9L511,51L533,76Z" fill="#f9c2aa" stroke="#f9c2aa" stroke-width="1.51"/><path d="M535,158L562,201L581,134Z" fill="#aa96a3" stroke="#aa96a3" stroke-width="1.51"/><path d="M533,76L581,134L582,88Z" fill="#e4c6bb" stroke="#e4c6bb" stroke-width="1.51"/><path d="M566,-29L523,9L589,48Z" fill="#f6ad8b" stroke="#f6ad8b" stroke-width="1.51"/><path d="M533,76L582,88L589,48Z" fill="#f6cfbf" stroke="#f6cfbf" stroke-width="1.51"/><path d="M523,9L533,76L589,48Z" fill="#fac6ad" stroke="#fac6ad" stroke-width="1.51"/><path d="M493,-63L510,-44L574,-56Z" fill="#d56654" stroke="#d56654" stroke-width="1.51"/><path d="M533,76L535,158L581,134Z" fill="#cfb7b2" stroke="#cfb7b2" stroke-width="1.51"/><path d="M515,182L469,206L562,201Z" fill="#977486" stroke="#977486" stroke-width="1.51"/><path d="M510,-44L566,-29L574,-56Z" fill="#dd755e" stroke="#dd755e" stroke-width="1.51"/><path d="M533,76L485,115L535,158Z" fill="#d3b6af" stroke="#d3b6af" stroke-width="1.51"/><path d="M535,158L515,182L562,201Z" fill="#a4879a" stroke="#a4879a" stroke-width="1.51"/><path d="M509,-26L523,9L566,-29Z" fill="#ea8e6f" stroke="#ea8e6f" stroke-width="1.51"/><path d="M510,-44L509,-26L566,-29Z" fill="#e17a61" stroke="#e17a61" stroke-width="1.51"/><path d="M357,-81L415,-53L493,-63Z" fill="#bf4e44" stroke="#bf4e44" stroke-width="1.51"/><path d="M317,198L300,203L440,209Z" fill="#8a5568" stroke="#8a5568" stroke-width="1.51"/><path d="M499,32L511,51L523,9Z" fill="#f8b89c" stroke="#f8b89c" stroke-width="1.51"/><path d="M485,115L515,182L535,158Z" fill="#b09aa1" stroke="#b09aa1" stroke-width="1.51"/><path d="M511,51L469,100L533,76Z" fill="#f1c5b5" stroke="#f1c5b5" stroke-width="1.51"/><path d="M469,100L485,115L533,76Z" fill="#e4bdb1" stroke="#e4bdb1" stroke-width="1.51"/><path d="M485,115L451,159L515,182Z" fill="#af969d" stroke="#af969d" stroke-width="1.51"/><path d="M509,-26L499,32L523,9Z" fill="#f2a17f" stroke="#f2a17f" stroke-width="1.51"/><path d="M428,-14L499,32L509,-26Z" fill="#ed9474" stroke="#ed9474" stroke-width="1.51"/><path d="M451,159L469,206L515,182Z" fill="#a07c91" stroke="#a07c91" stroke-width="1.51"/><path d="M493,-63L509,-26L510,-44Z" fill="#d96b57" stroke="#d96b57" stroke-width="1.51"/><path d="M499,32L443,77L511,51Z" fill="#f7c0ab" stroke="#f7c0ab" stroke-width="1.51"/><path d="M443,77L469,100L511,51Z" fill="#efc0b1" stroke="#efc0b1" stroke-width="1.51"/><path d="M493,-63L428,-14L509,-26Z" fill="#dd715a" stroke="#dd715a" stroke-width="1.51"/><path d="M387,190L317,198L440,209Z" fill="#8f5e72" stroke="#8f5e72" stroke-width="1.51"/><path d="M421,41L443,77L499,32Z" fill="#f6b9a4" stroke="#f6b9a4" stroke-width="1.51"/><path d="M428,-14L421,41L499,32Z" fill="#f2a588" stroke="#f2a588" stroke-width="1.51"/><path d="M415,-53L428,-14L493,-63Z" fill="#d56351" stroke="#d56351" stroke-width="1.51"/><path d="M469,100L451,159L485,115Z" fill="#c9aaa5" stroke="#c9aaa5" stroke-width="1.51"/><path d="M396,120L451,159L469,100Z" fill="#c7a4a1" stroke="#c7a4a1" stroke-width="1.51"/><path d="M443,77L396,120L469,100Z" fill="#dfb2a8" stroke="#dfb2a8" stroke-width="1.51"/><path d="M451,159L440,209L469,206Z" fill="#987084" stroke="#987084" stroke-width="1.51"/><path d="M387,190L440,209L451,159Z" fill="#9b7187" stroke="#9b7187" stroke-width="1.51"/><path d="M396,120L387,190L451,159Z" fill="#a98791" stroke="#a98791" stroke-width="1.51"/><path d="M421,41L400,49L443,77Z" fill="#f3b7a4" stroke="#f3b7a4" stroke-width="1.51"/><path d="M400,49L396,120L443,77Z" fill="#e9b4a8" stroke="#e9b4a8" stroke-width="1.51"/><path d="M138,-67L256,-42L357,-81Z" fill="#b43134" stroke="#b43134" stroke-width="1.51"/><path d="M366,86L396,120L400,49Z" fill="#e6afa4" stroke="#e6afa4" stroke-width="1.51"/><path d="M357,-81L405,-48L415,-53Z" fill="#c34b42" stroke="#c34b42" stroke-width="1.51"/><path d="M405,-48L365,-27L428,-14Z" fill="#da6853" stroke="#da6853" stroke-width="1.51"/><path d="M400,49L421,41L428,-14Z" fill="#f1a48a" stroke="#f1a48a" stroke-width="1.51"/><path d="M365,-27L400,49L428,-14Z" fill="#ea8d6f" stroke="#ea8d6f" stroke-width="1.51"/><path d="M415,-53L405,-48L428,-14Z" fill="#d66350" stroke="#d66350" stroke-width="1.51"/><path d="M138,-67L170,-52L256,-42Z" fill="#ba2b31" stroke="#ba2b31" stroke-width="1.51"/><path d="M365,-27L351,49L400,49Z" fill="#ee9b82" stroke="#ee9b82" stroke-width="1.51"/><path d="M353,-24L351,49L365,-27Z" fill="#e58266" stroke="#e58266" stroke-width="1.51"/><path d="M333,146L387,190L396,120Z" fill="#aa858e" stroke="#aa858e" stroke-width="1.51"/><path d="M357,-81L365,-27L405,-48Z" fill="#ca4e43" stroke="#ca4e43" stroke-width="1.51"/><path d="M164,185L99,213L300,203Z" fill="#82435d" stroke="#82435d" stroke-width="1.51"/><path d="M351,49L355,79L366,86Z" fill="#ecafa1" stroke="#ecafa1" stroke-width="1.51"/><path d="M351,49L366,86L400,49Z" fill="#f1b1a2" stroke="#f1b1a2" stroke-width="1.51"/><path d="M366,86L333,146L396,120Z" fill="#cb9e9a" stroke="#cb9e9a" stroke-width="1.51"/><path d="M333,146L317,198L387,190Z" fill="#9c6c82" stroke="#9c6c82" stroke-width="1.51"/><path d="M237,179L164,185L300,203Z" fill="#8f546e" stroke="#8f546e" stroke-width="1.51"/><path d="M297,7L351,49L353,-24Z" fill="#e88a6f" stroke="#e88a6f" stroke-width="1.51"/><path d="M357,-81L353,-24L365,-27Z" fill="#ce5346" stroke="#ce5346" stroke-width="1.51"/><path d="M355,79L333,146L366,86Z" fill="#d7a39b" stroke="#d7a39b" stroke-width="1.51"/><path d="M283,82L333,146L355,79Z" fill="#d69f99" stroke="#d69f99" stroke-width="1.51"/><path d="M264,-39L353,-24L357,-81Z" fill="#c94940" stroke="#c94940" stroke-width="1.51"/><path d="M256,-42L264,-39L357,-81Z" fill="#c23d3a" stroke="#c23d3a" stroke-width="1.51"/><path d="M351,49L288,47L355,79Z" fill="#efaa9a" stroke="#efaa9a" stroke-width="1.51"/><path d="M288,47L283,82L355,79Z" fill="#eaa89c" stroke="#eaa89c" stroke-width="1.51"/><path d="M297,7L288,47L351,49Z" fill="#ec9c87" stroke="#ec9c87" stroke-width="1.51"/><path d="M264,-39L297,7L353,-24Z" fill="#d86551" stroke="#d86551" stroke-width="1.51"/><path d="M300,203L317,198L333,146Z" fill="#99647c" stroke="#99647c" stroke-width="1.51"/><path d="M263,138L300,203L333,146Z" fill="#a17282" stroke="#a17282" stroke-width="1.51"/><path d="M283,82L263,138L333,146Z" fill="#c39190" stroke="#c39190" stroke-width="1.51"/><path d="M263,138L237,179L300,203Z" fill="#9a667b" stroke="#9a667b" stroke-width="1.51"/><path d="M259,63L283,82L288,47Z" fill="#eba599" stroke="#eba599" stroke-width="1.51"/><path d="M264,-39L220,-28L297,7Z" fill="#d35d4c" stroke="#d35d4c" stroke-width="1.51"/><path d="M220,-28L206,18L297,7Z" fill="#dc715b" stroke="#dc715b" stroke-width="1.51"/><path d="M259,63L288,47L297,7Z" fill="#ea9a87" stroke="#ea9a87" stroke-width="1.51"/><path d="M206,18L259,63L297,7Z" fill="#e7907b" stroke="#e7907b" stroke-width="1.51"/><path d="M236,120L263,138L283,82Z" fill="#c8918f" stroke="#c8918f" stroke-width="1.51"/><path d="M239,85L236,120L283,82Z" fill="#d89993" stroke="#d89993" stroke-width="1.51"/><path d="M259,63L239,85L283,82Z" fill="#e39f96" stroke="#e39f96" stroke-width="1.51"/><path d="M170,-52L220,-28L256,-42Z" fill="#c4403b" stroke="#c4403b" stroke-width="1.51"/><path d="M236,120L237,179L263,138Z" fill="#aa7983" stroke="#aa7983" stroke-width="1.51"/><path d="M256,-42L220,-28L264,-39Z" fill="#c94a40" stroke="#c94a40" stroke-width="1.51"/><path d="M206,18L239,85L259,63Z" fill="#e79c8f" stroke="#e79c8f" stroke-width="1.51"/><path d="M236,120L180,133L237,179Z" fill="#a97781" stroke="#a97781" stroke-width="1.51"/><path d="M200,88L236,120L239,85Z" fill="#d49491" stroke="#d49491" stroke-width="1.51"/><path d="M206,18L200,88L239,85Z" fill="#e79d93" stroke="#e79d93" stroke-width="1.51"/><path d="M180,133L164,185L237,179Z" fill="#996276" stroke="#996276" stroke-width="1.51"/><path d="M200,88L180,133L236,120Z" fill="#c58a8a" stroke="#c58a8a" stroke-width="1.51"/><path d="M160,-8L206,18L220,-28Z" fill="#d66553" stroke="#d66553" stroke-width="1.51"/><path d="M170,-52L160,-8L220,-28Z" fill="#c8473f" stroke="#c8473f" stroke-width="1.51"/><path d="M116,58L200,88L206,18Z" fill="#e39388" stroke="#e39388" stroke-width="1.51"/><path d="M160,-8L116,58L206,18Z" fill="#de7e6b" stroke="#de7e6b" stroke-width="1.51"/><path d="M116,100L180,133L200,88Z" fill="#c88888" stroke="#c88888" stroke-width="1.51"/><path d="M116,58L116,100L200,88Z" fill="#d88f8b" stroke="#d88f8b" stroke-width="1.51"/><path d="M102,17L116,58L160,-8Z" fill="#db7868" stroke="#db7868" stroke-width="1.51"/><path d="M118,187L99,213L164,185Z" fill="#82405d" stroke="#82405d" stroke-width="1.51"/><path d="M109,139L164,185L180,133Z" fill="#9d6877" stroke="#9d6877" stroke-width="1.51"/><path d="M115,117L109,139L180,133Z" fill="#b2787e" stroke="#b2787e" stroke-width="1.51"/><path d="M116,100L115,117L180,133Z" fill="#be8083" stroke="#be8083" stroke-width="1.51"/><path d="M109,139L118,187L164,185Z" fill="#93576f" stroke="#93576f" stroke-width="1.51"/><path d="M132,-18L160,-8L170,-52Z" fill="#c7463e" stroke="#c7463e" stroke-width="1.51"/><path d="M138,-67L132,-18L170,-52Z" fill="#bb2e32" stroke="#bb2e32" stroke-width="1.51"/><path d="M132,-18L102,17L160,-8Z" fill="#d2604f" stroke="#d2604f" stroke-width="1.51"/><path d="M80,-9L132,-18L138,-67Z" fill="#c13b39" stroke="#c13b39" stroke-width="1.51"/><path d="M61,-72L80,-9L138,-67Z" fill="#b1222e" stroke="#b1222e" stroke-width="1.51"/><path d="M80,-9L102,17L132,-18Z" fill="#ce5d4e" stroke="#ce5d4e" stroke-width="1.51"/><path d="M102,17L69,67L116,58Z" fill="#da867d" stroke="#da867d" stroke-width="1.51"/><path d="M116,58L69,67L116,100Z" fill="#d68c88" stroke="#d68c88" stroke-width="1.51"/><path d="M109,139L55,176L118,187Z" fill="#8e566e" stroke="#8e566e" stroke-width="1.51"/><path d="M55,176L99,213L118,187Z" fill="#7f415f" stroke="#7f415f" stroke-width="1.51"/><path d="M69,67L115,117L116,100Z" fill="#cc8686" stroke="#cc8686" stroke-width="1.51"/><path d="M69,67L109,139L115,117Z" fill="#c08083" stroke="#c08083" stroke-width="1.51"/><path d="M26,160L55,176L109,139Z" fill="#8c5b70" stroke="#8c5b70" stroke-width="1.51"/><path d="M69,67L29,78L109,139Z" fill="#c58485" stroke="#c58485" stroke-width="1.51"/><path d="M29,78L26,160L109,139Z" fill="#a8747c" stroke="#a8747c" stroke-width="1.51"/><path d="M55,176L-27,206L99,213Z" fill="#703756" stroke="#703756" stroke-width="1.51"/><path d="M80,-9L29,23L102,17Z" fill="#ce6959" stroke="#ce6959" stroke-width="1.51"/><path d="M29,23L69,67L102,17Z" fill="#d37f74" stroke="#d37f74" stroke-width="1.51"/><path d="M38,-14L29,23L80,-9Z" fill="#c55d4f" stroke="#c55d4f" stroke-width="1.51"/><path d="M61,-72L38,-14L80,-9Z" fill="#b53737" stroke="#b53737" stroke-width="1.51"/><path d="M14,-40L38,-14L61,-72Z" fill="#ab2930" stroke="#ab2930" stroke-width="1.51"/><path d="M29,23L29,78L69,67Z" fill="#cf8681" stroke="#cf8681" stroke-width="1.51"/><path d="M-13,104L26,160L29,78Z" fill="#a9777e" stroke="#a9777e" stroke-width="1.51"/><path d="M26,160L-27,206L55,176Z" fill="#794667" stroke="#794667" stroke-width="1.51"/><path d="M-35,-86L14,-40L61,-72Z" fill="#910d26" stroke="#910d26" stroke-width="1.51"/><path d="M29,23L-23,21L29,78Z" fill="#c87d75" stroke="#c87d75" stroke-width="1.51"/><path d="M-23,21L29,23L38,-14Z" fill="#c36557" stroke="#c36557" stroke-width="1.51"/><path d="M14,-40L-23,21L38,-14Z" fill="#b84d44" stroke="#b84d44" stroke-width="1.51"/><path d="M-31,-34L-23,21L14,-40Z" fill="#b0443e" stroke="#b0443e" stroke-width="1.51"/><path d="M-13,104L-38,135L26,160Z" fill="#946977" stroke="#946977" stroke-width="1.51"/><path d="M-52,57L-13,104L29,78Z" fill="#bc8284" stroke="#bc8284" stroke-width="1.51"/><path d="M-23,21L-52,57L29,78Z" fill="#c4807c" stroke="#c4807c" stroke-width="1.51"/><path d="M-38,135L-27,206L26,160Z" fill="#794f6a" stroke="#794f6a" stroke-width="1.51"/><path d="M-35,-86L-31,-34L14,-40Z" fill="#9a1429" stroke="#9a1429" stroke-width="1.51"/><path d="M-52,57L-70,76L-44,116Z" fill="#b27d82" stroke="#b27d82" stroke-width="1.51"/><path d="M-38,135L-65,209L-27,206Z" fill="#6c4064" stroke="#6c4064" stroke-width="1.51"/><path d="M-44,116L-38,135L-13,104Z" fill="#9c717a" stroke="#9c717a" stroke-width="1.51"/><path d="M-52,57L-44,116L-13,104Z" fill="#b07c81" stroke="#b07c81" stroke-width="1.51"/><path d="M-35,-86L-78,-67L-31,-34Z" fill="#8b0a25" stroke="#8b0a25" stroke-width="1.51"/><path d="M-31,-34L-82,-20L-23,21Z" fill="#ad4943" stroke="#ad4943" stroke-width="1.51"/><path d="M-82,-20L-52,57L-23,21Z" fill="#b8685f" stroke="#b8685f" stroke-width="1.51"/><path d="M-78,-67L-82,-20L-31,-34Z" fill="#9a252e" stroke="#9a252e" stroke-width="1.51"/><path d="M-44,116L-65,209L-38,135Z" fill="#79566d" stroke="#79566d" stroke-width="1.51"/><path d="M-70,76L-65,209L-44,116Z" fill="#896574" stroke="#896574" stroke-width="1.51"/><path d="M-82,-20L-70,76L-52,57Z" fill="#b97570" stroke="#b97570" stroke-width="1.51"/><path d="M-70,76L-82,-20L-65,209Z" fill="#ab7a80" stroke="#ab7a80" stroke-width="1.51"/></svg>